#!OML:ASF H:\Male1\Project 1\Capture day 1\Session 1\Male1.ASF
:FULLY-SPECIFIED
:DEGREES
292
root 5.65508 14.2963 1.5921 186.22 12.8291 -176.847
lowerback 28.1759 -0.427642 -2.76874
upperback 12.332 1.751 -3.58657
thorax -1.62664 2.15182 -2.87302
lowerneck -5.57783 7.63176 9.70287
upperneck -14.0125 9.94853 -11.8252
head -2.13262 5.40901 -5.13768
rclavicle -2.14687e-014 -9.54166e-015
rhumerus 5.52338 -9.24103 -51.2552
rradius 116.933
rwrist -16.5429
rhand -37.8408 -1.82892
rfingers 7.12502
rthumb -10.8857 -31.5268
lclavicle -2.14687e-014 -9.54166e-015
lhumerus 4.46482 18.123 37.2829
lradius 115.321
lwrist -11.1846
lhand -34.9116 14.9743
lfingers 7.12502
lthumb -8.05943 44.8006
rfemur -46.7771 -9.666 26.8269
rtibia 70.3118
rfoot -17.6777 -9.48481
rtoes -33.2347
lfemur -39.3219 -12.3589 -15.7606
ltibia 59.471
lfoot -25.3962 7.9217
ltoes -23.4457
293
root 5.74614 14.2294 1.57998 185.973 12.9049 -176.792
lowerback 28.4469 -0.433718 -2.75503
upperback 12.3902 1.77681 -3.60479
thorax -1.68208 2.18236 -2.91907
lowerneck -5.58678 7.70404 9.66937
upperneck -13.9958 10.0381 -11.8959
head -2.11359 5.45654 -5.14901
rclavicle -1.19271e-014 2.38542e-015
rhumerus 5.42133 -9.44925 -51.2196
rradius 117.027
rwrist -16.4959
rhand -37.775 -1.90808
rfingers 7.12502
rthumb -10.8222 -31.6093
lclavicle -1.19271e-014 2.38542e-015
lhumerus 4.67441 18.2284 37.5359
lradius 115.222
lwrist -11.2652
lhand -35.1986 15.4469
lfingers 7.12502
lthumb -8.33643 45.2624
rfemur -47.6649 -9.70982 25.7365
rtibia 72.2609
rfoot -17.5517 -10.038
rtoes -31.9874
lfemur -39.5055 -12.0288 -15.4386
ltibia 60.6313
lfoot -25.9888 7.69812
ltoes -23.3521
294
root 5.8416 14.1659 1.56663 185.736 12.9474 -176.702
lowerback 28.6884 -0.45181 -2.66695
upperback 12.4537 1.80723 -3.60029
thorax -1.71819 2.21657 -2.98264
lowerneck -5.59247 7.76943 9.64314
upperneck -13.9761 10.1174 -11.9837
head -2.09365 5.49933 -5.16694
rclavicle 1.59028e-014 -1.19271e-014
rhumerus 5.29992 -9.64498 -51.2102
rradius 117.125
rwrist -16.4232
rhand -37.7384 -2.00465
rfingers 7.12502
rthumb -10.7869 -31.7077
lclavicle 1.59028e-014 -1.19271e-014
lhumerus 4.82511 18.2653 37.7827
lradius 115.089
lwrist -11.3277
lhand -35.5155 15.7562
lfingers 7.12502
lthumb -8.64228 45.5593
rfemur -48.2931 -9.47344 24.3194
rtibia 73.7347
rfoot -17.65 -10.9855
rtoes -30.0093
lfemur -39.6544 -11.78 -15.0526
ltibia 61.7386
lfoot -26.5185 7.5716
ltoes -23.4495
295
root 5.94065 14.1042 1.55154 185.511 12.9635 -176.578
lowerback 28.9098 -0.485187 -2.51111
upperback 12.5175 1.83475 -3.57441
thorax -1.7452 2.25005 -3.05987
lowerneck -5.57502 7.82589 9.63048
upperneck -13.9803 10.1846 -12.0945
head -2.08331 5.53774 -5.19638
rclavicle -2.38542e-015 6.67916e-014
rhumerus 5.17472 -9.79465 -51.2236
rradius 117.234
rwrist -16.3353
rhand -37.7533 -2.10238
rfingers 7.12502
rthumb -10.8014 -31.8046
lclavicle -2.38542e-015 6.67916e-014
lhumerus 4.90209 18.2454 38.0163
lradius 114.923
lwrist -11.3852
lhand -35.8481 15.9542
lfingers 7.12502
lthumb -8.96319 45.7438
rfemur -48.6713 -9.04106 22.6375
rtibia 74.6942
rfoot -17.872 -12.1647
rtoes -27.8475
lfemur -39.7701 -11.6319 -14.6078
ltibia 62.8004
lfoot -26.9858 7.58309
ltoes -23.818
296
root 6.04279 14.0439 1.53421 185.289 12.9624 -176.433
lowerback 29.117 -0.53341 -2.31037
upperback 12.578 1.85317 -3.53109
thorax -1.76984 2.27881 -3.14055
lowerneck -5.52545 7.87508 9.64512
upperneck -14.0146 10.2416 -12.2336
head -2.08461 5.57243 -5.24177
rclavicle 1.35174e-014 2.54444e-014
rhumerus 5.05423 -9.88455 -51.2636
rradius 117.352
rwrist -16.2462
rhand -37.8122 -2.17013
rfingers 7.12502
rthumb -10.8581 -31.8694
lclavicle 1.35174e-014 2.54444e-014
lhumerus 4.90949 18.1854 38.2485
lradius 114.72
lwrist -11.4595
lhand -36.1659 16.1343
lfingers 7.12502
lthumb -9.26988 45.9105
rfemur -48.8116 -8.47798 20.7477
rtibia 75.1187
rfoot -18.116 -13.2803
rtoes -25.6193
lfemur -39.8476 -11.5919 -14.1229
ltibia 63.8225
lfoot -27.4142 7.74367
ltoes -24.4316
297
root 6.14766 13.984 1.51442 185.072 12.9577 -176.266
lowerback 29.308 -0.594086 -2.05863
upperback 12.6344 1.86716 -3.4797
thorax -1.7917 2.30577 -3.23982
lowerneck -5.4527 7.91557 9.71488
upperneck -14.0669 10.2845 -12.4029
head -2.09134 5.59985 -5.30731
rclavicle 1.59028e-015 -3.18055e-015
rhumerus 4.93411 -9.93577 -51.3357
rradius 117.468
rwrist -16.1701
rhand -37.8843 -2.19798
rfingers 7.12502
rthumb -10.9276 -31.8936
lclavicle 1.59028e-015 -3.18055e-015
lhumerus 4.87358 18.0844 38.4909
lradius 114.482
lwrist -11.5635
lhand -36.4343 16.3178
lfingers 7.12502
lthumb -9.52886 46.0823
rfemur -48.7305 -7.84146 18.7556
rtibia 75.0058
rfoot -18.2307 -14.2996
rtoes -23.9449
lfemur -39.889 -11.643 -13.6004
ltibia 64.8106
lfoot -27.8382 8.02987
ltoes -25.17
298
root 6.25569 13.9259 1.49298 184.882 12.9685 -176.078
lowerback 29.46 -0.658885 -1.76972
upperback 12.6825 1.88097 -3.4208
thorax -1.80516 2.3311 -3.35062
lowerneck -5.3809 7.95096 9.83422
upperneck -14.1152 10.3171 -12.6006
head -2.09311 5.62077 -5.38939
rclavicle 2.38542e-015 -2.38542e-015
rhumerus 4.82769 -9.95856 -51.4359
rradius 117.564
rwrist -16.1099
rhand -37.9283 -2.18163
rfingers 7.12502
rthumb -10.9701 -31.875
lclavicle 2.38542e-015 -2.38542e-015
lhumerus 4.78914 17.9568 38.7448
lradius 114.216
lwrist -11.7052
lhand -36.6272 16.519
lfingers 7.12502
lthumb -9.71495 46.2749
rfemur -48.4773 -7.13054 16.73
rtibia 74.3849
rfoot -18.2385 -15.1421
rtoes -22.6363
lfemur -39.9127 -11.7328 -13.0323
ltibia 65.7575
lfoot -28.2896 8.35241
ltoes -25.812
